<svg xmlns="http://www.w3.org/2000/svg" viewBox="0 0 402.01 345.84"><g id="freepik--Key--inject-74"><path d="M217.65,105.62a34.26,34.26,0,0,0,50.08,40.75A16.18,16.18,0,0,1,282,145l8,3.14,2-5.2,11.73,4.57,1.88-.6a11.26,11.26,0,0,1,11.2,2.59l4.69,4.5,6.37,0a13.28,13.28,0,0,1,9.18,3.75l.56.55a9.72,9.72,0,0,0,9.65,2.3l6.4-2a2.18,2.18,0,0,0,1.19-3.24l-4.55-7.16a10.78,10.78,0,0,0-5.16-4.24l-46.47-18.13,1.73-4.45L298.77,119l-6.35-.78A15.68,15.68,0,0,1,283,107.89a34.27,34.27,0,0,0-65.31-2.27Z" transform="translate(-52.61 -79.95)" style="fill:#fff;stroke:#263238;stroke-linecap:round;stroke-linejoin:round"></path><path d="M216,103.26A34.27,34.27,0,0,0,266.05,144a16.13,16.13,0,0,1,14.26-1.39l8,3.13,2-5.2,11.73,4.58,1.87-.61a11.23,11.23,0,0,1,11.2,2.6l4.7,4.5,6.37,0a13.25,13.25,0,0,1,9.17,3.74l.57.55a9.69,9.69,0,0,0,9.65,2.3l6.4-2a2.17,2.17,0,0,0,1.18-3.24l-4.54-7.16a10.78,10.78,0,0,0-5.16-4.24L297,123.48l1.74-4.45-8-3.13a15.75,15.75,0,0,1-9.47-10.37,34.26,34.26,0,0,0-65.3-2.27Z" transform="translate(-52.61 -79.95)" style="fill:#fff;stroke:#263238;stroke-linecap:round;stroke-linejoin:round"></path><line x1="247.85" y1="56.89" x2="298.3" y2="76.57" style="fill:none;stroke:#263238;stroke-linecap:round;stroke-linejoin:round"></line><polyline points="236.42 62.81 229.37 60.06 232.89 51.05 243.92 55.36" style="fill:none;stroke:#263238;stroke-linecap:round;stroke-linejoin:round"></polyline><polyline points="276.85 62.34 230.56 44.28 233.42 36.97 245.19 41.56" style="fill:none;stroke:#263238;stroke-linecap:round;stroke-linejoin:round"></polyline><line x1="299.29" y1="71.09" x2="281.01" y2="63.96" style="fill:none;stroke:#263238;stroke-linecap:round;stroke-linejoin:round"></line><circle cx="182.98" cy="29.78" r="9.67" style="fill:#fff;stroke:#263238;stroke-linecap:round;stroke-linejoin:round"></circle><ellipse cx="236.37" cy="110.03" rx="9.63" ry="8.83" transform="translate(-4.65 210.31) rotate(-68.69)" style="fill:#fff;stroke:#263238;stroke-linecap:round;stroke-linejoin:round"></ellipse><path d="M228.74,138.42A30.7,30.7,0,0,0,277.86,107" transform="translate(-52.61 -79.95)" style="fill:none;stroke:#263238;stroke-linecap:round;stroke-linejoin:round"></path><path d="M217.75,110.19a30.78,30.78,0,0,0,7.5,24.9" transform="translate(-52.61 -79.95)" style="fill:none;stroke:#263238;stroke-linecap:round;stroke-linejoin:round"></path><path d="M271.67,94.93a30.69,30.69,0,0,0-52.14,8.53,32.83,32.83,0,0,0-1.35,4.41" transform="translate(-52.61 -79.95)" style="fill:none;stroke:#263238;stroke-linecap:round;stroke-linejoin:round"></path><path d="M276.53,103a31.42,31.42,0,0,0-2.84-5.38" transform="translate(-52.61 -79.95)" style="fill:none;stroke:#263238;stroke-linecap:round;stroke-linejoin:round"></path><path d="M215.83,146.06a24.38,24.38,0,1,1,27.3-31.18,1.61,1.61,0,0,0,.27.52,18.12,18.12,0,0,0,1.69-4.59,27.65,27.65,0,1,0-12.21,35.57,1.69,1.69,0,0,0,.68-.7A34.32,34.32,0,0,1,230.4,144,24.13,24.13,0,0,1,215.83,146.06Z" transform="translate(-52.61 -79.95)" style="fill:#263238"></path><line x1="235.73" y1="65.81" x2="237.41" y2="68.17" style="fill:none;stroke:#263238;stroke-linecap:round;stroke-linejoin:round"></line></g><g id="freepik--Bills--inject-74"><rect x="83.08" y="276.92" width="169.86" height="89.63" transform="translate(190.74 -113.27) rotate(39.55)" style="fill:#fff;stroke:#263238;stroke-linecap:round;stroke-linejoin:round"></rect><path d="M126.44,250.57,90.63,293.94a9.4,9.4,0,0,1,0,11.92l-.37.41L196.47,394c.11-.14.21-.3.33-.44A9.41,9.41,0,0,1,210,392.33l35.59-43.09A9.4,9.4,0,0,1,244.37,336L138.15,248.27A9.42,9.42,0,0,1,126.44,250.57Z" transform="translate(-52.61 -79.95)" style="fill:#fff;stroke:#263238;stroke-linecap:round;stroke-linejoin:round"></path><path d="M141.47,309.23A29.8,29.8,0,0,0,189,342.58" transform="translate(-52.61 -79.95)" style="fill:none;stroke:#263238;stroke-linecap:round;stroke-linejoin:round"></path><path d="M155.29,294a29.78,29.78,0,0,0-9.19,7.45c-.29.35-.57.7-.83,1.06" transform="translate(-52.61 -79.95)" style="fill:none;stroke:#263238;stroke-linecap:round;stroke-linejoin:round"></path><path d="M196.12,333a29.8,29.8,0,0,0-36.86-40.63" transform="translate(-52.61 -79.95)" style="fill:none;stroke:#263238;stroke-linecap:round;stroke-linejoin:round"></path><circle cx="169.07" cy="320.45" r="27.29" transform="translate(-229.69 133.46) rotate(-45)" style="fill:#263238"></circle><path d="M152.18,322a2.74,2.74,0,0,1,.12-1.75,2.6,2.6,0,0,1,1-1.26,3.7,3.7,0,0,1,1.54-.55,2.29,2.29,0,0,1,1.59.39,3.79,3.79,0,0,1,1.23,1.57c.06.13.22.5.47,1.11s.47,1.12.67,1.55a11,11,0,0,0,1,1.63,11.71,11.71,0,0,0,1.67,1.86,8.2,8.2,0,0,0,1.46,1.22,11.11,11.11,0,0,0,1.67,1,3.11,3.11,0,0,0,1.68.3,2.1,2.1,0,0,0,1.44-.82,1.92,1.92,0,0,0,.24-1.66,6.54,6.54,0,0,0-1.24-2.44l-2.35-3.3c-.87-1.26-1.55-2.3-2-3.11a18.44,18.44,0,0,1-1.32-2.63,6.62,6.62,0,0,1-.58-2.55,6.76,6.76,0,0,1,.46-2.37,9,9,0,0,1,1.56-2.57,7.19,7.19,0,0,1,6.84-2.67q4.2.53,8.59,4.62a18.11,18.11,0,0,1,2.25,2.43,19.72,19.72,0,0,1,1.4,2q.43.76,1,2a3.21,3.21,0,0,1,.31,1.95,2.67,2.67,0,0,1-.74,1.55,3.62,3.62,0,0,1-1.38.84,2,2,0,0,1-1.62-.14,3.67,3.67,0,0,1-1.43-1.4,24.17,24.17,0,0,0-3.58-4.72c-.5-.47-1-.93-1.66-1.4a4.82,4.82,0,0,0-2-.9,1.57,1.57,0,0,0-1.59.45,1.92,1.92,0,0,0-.43,1.71,6.93,6.93,0,0,0,1.3,2.33l2.39,3.22a35.69,35.69,0,0,1,2.27,3.51,12.41,12.41,0,0,1,1.2,3.12,6.33,6.33,0,0,1,0,3.12,8.55,8.55,0,0,1-1.64,3,8.34,8.34,0,0,1-4.66,3.1,9.34,9.34,0,0,1-5.53-.4,17.14,17.14,0,0,1-5.54-3.5A19.75,19.75,0,0,1,152.18,322Zm27.35-18.85a1.84,1.84,0,0,1,1.42-.76,2,2,0,0,1,1.37.46,2,2,0,0,1,.68,1.29,1.81,1.81,0,0,1-.45,1.51L178,311.12l-3-2.49Zm-21.07,26.36,3,2.51L157,337.45a1.83,1.83,0,0,1-1.88.72,2,2,0,0,1-1.54-1.24,1.82,1.82,0,0,1,.37-2Z" transform="translate(-52.61 -79.95)" style="fill:#fff;stroke:#263238;stroke-miterlimit:10"></path><rect x="71.26" y="281.26" width="169.86" height="89.63" transform="translate(240.42 -88.52) rotate(47.84)" style="fill:#fff;stroke:#263238;stroke-linecap:round;stroke-linejoin:round"></rect><path d="M125.31,249.67l-41.7,37.75a9.41,9.41,0,0,1-1.76,11.8l-.43.35,92.52,102.15c.13-.13.25-.26.39-.39a9.41,9.41,0,0,1,13.28.66L229,364.48a9.42,9.42,0,0,1,.66-13.29L137.22,249.08A9.41,9.41,0,0,1,125.31,249.67Z" transform="translate(-52.61 -79.95)" style="fill:#fff;stroke:#263238;stroke-linecap:round;stroke-linejoin:round"></path><path d="M131.72,309.88A29.79,29.79,0,0,0,174,349.73" transform="translate(-52.61 -79.95)" style="fill:none;stroke:#263238;stroke-linecap:round;stroke-linejoin:round"></path><path d="M147.59,296.83a29.76,29.76,0,0,0-10.17,6.05c-.33.3-.66.61-1,.93" transform="translate(-52.61 -79.95)" style="fill:none;stroke:#263238;stroke-linecap:round;stroke-linejoin:round"></path><path d="M182.38,341.22a29.79,29.79,0,0,0-30.61-45.51" transform="translate(-52.61 -79.95)" style="fill:none;stroke:#263238;stroke-linecap:round;stroke-linejoin:round"></path><circle cx="157.42" cy="324.96" r="27.29" transform="translate(-236.29 126.54) rotate(-45)" style="fill:#263238"></circle><path d="M140.49,324a2.68,2.68,0,0,1,.37-1.71,2.62,2.62,0,0,1,1.21-1.1,3.75,3.75,0,0,1,1.6-.32,2.22,2.22,0,0,1,1.52.62,3.69,3.69,0,0,1,1,1.72c0,.14.15.53.3,1.16s.31,1.19.45,1.63a10.39,10.39,0,0,0,.77,1.77,11.61,11.61,0,0,0,1.39,2.08,8.19,8.19,0,0,0,1.26,1.42,12.92,12.92,0,0,0,1.52,1.19,3.05,3.05,0,0,0,1.61.53,2.08,2.08,0,0,0,1.55-.59,1.89,1.89,0,0,0,.47-1.62,6.45,6.45,0,0,0-.86-2.58l-1.85-3.61c-.69-1.38-1.21-2.5-1.58-3.37a20,20,0,0,1-.92-2.8,6.57,6.57,0,0,1-.22-2.6,6.94,6.94,0,0,1,.81-2.29,9.08,9.08,0,0,1,1.9-2.31,7.19,7.19,0,0,1,7.16-1.66q4.09,1.13,7.84,5.82a20.56,20.56,0,0,1,3,4.93c.21.55.46,1.27.74,2.17a3.2,3.2,0,0,1,0,2,2.69,2.69,0,0,1-1,1.42,3.65,3.65,0,0,1-1.48.64,2,2,0,0,1-1.58-.37,3.71,3.71,0,0,1-1.22-1.6,24.42,24.42,0,0,0-2.86-5.19c-.43-.53-.91-1.07-1.45-1.62a4.55,4.55,0,0,0-1.81-1.17,1.52,1.52,0,0,0-1.64.22,1.85,1.85,0,0,0-.67,1.62,6.62,6.62,0,0,0,1,2.49l1.89,3.54a35.53,35.53,0,0,1,1.75,3.8,12.22,12.22,0,0,1,.74,3.25,6.34,6.34,0,0,1-.49,3.09,9.3,9.3,0,0,1-7.12,5.18,9.33,9.33,0,0,1-5.41-1.19,17.11,17.11,0,0,1-5-4.27A19.64,19.64,0,0,1,140.49,324Zm29.78-14.71a1.86,1.86,0,0,1,1.52-.55,2,2,0,0,1,1.28.66,2,2,0,0,1,.49,1.37,1.8,1.8,0,0,1-.66,1.42L167.6,317,165,314.11Zm-24.64,23,2.65,2.93L143,340.05a1.82,1.82,0,0,1-2,.43,2,2,0,0,1-1.34-1.44,1.8,1.8,0,0,1,.65-1.92Z" transform="translate(-52.61 -79.95)" style="fill:#fff;stroke:#263238;stroke-miterlimit:10"></path><rect x="52.51" y="284.49" width="169.86" height="89.63" transform="translate(303.05 -32.97) rotate(60.36)" style="fill:#fff;stroke:#263238;stroke-linecap:round;stroke-linejoin:round"></rect><path d="M123.86,248,75,275.84A9.41,9.41,0,0,1,70.7,287l-.5.25L138.37,407c.15-.1.3-.2.46-.29a9.4,9.4,0,0,1,12.83,3.52l48.57-27.64a9.41,9.41,0,0,1,3.52-12.83L135.61,250A9.41,9.41,0,0,1,123.86,248Z" transform="translate(-52.61 -79.95)" style="fill:#fff;stroke:#263238;stroke-linecap:round;stroke-linejoin:round"></path><path d="M117.07,308.19a29.79,29.79,0,0,0,32.6,48.06" transform="translate(-52.61 -79.95)" style="fill:none;stroke:#263238;stroke-linecap:round;stroke-linejoin:round"></path><path d="M135.38,298.89a29.86,29.86,0,0,0-11.23,3.7c-.39.23-.78.46-1.16.7" transform="translate(-52.61 -79.95)" style="fill:none;stroke:#263238;stroke-linecap:round;stroke-linejoin:round"></path><path d="M159.73,349.77a29.8,29.8,0,0,0-20-51.07" transform="translate(-52.61 -79.95)" style="fill:none;stroke:#263238;stroke-linecap:round;stroke-linejoin:round"></path><circle cx="138.88" cy="328.48" r="27.29" transform="translate(-252.15 136.01) rotate(-48.69)" style="fill:#263238"></circle><path d="M122.56,323.89a2.73,2.73,0,0,1,.73-1.59,2.67,2.67,0,0,1,1.42-.81,3.79,3.79,0,0,1,1.64,0,2.21,2.21,0,0,1,1.34.93,3.6,3.6,0,0,1,.6,1.9c0,.14,0,.54,0,1.2s0,1.22.08,1.69a11.54,11.54,0,0,0,.37,1.89,12.09,12.09,0,0,0,.91,2.33,8.36,8.36,0,0,0,.92,1.66,12.68,12.68,0,0,0,1.23,1.49,3,3,0,0,0,1.46.87,2.14,2.14,0,0,0,1.64-.24,1.91,1.91,0,0,0,.81-1.48,6.48,6.48,0,0,0-.29-2.71l-1-3.93c-.37-1.49-.64-2.7-.81-3.62a19.5,19.5,0,0,1-.3-2.94,6.67,6.67,0,0,1,.36-2.59,7.15,7.15,0,0,1,1.28-2.05,9.08,9.08,0,0,1,2.37-1.85,7.16,7.16,0,0,1,7.34-.06q3.75,2,6.39,7.37a19.54,19.54,0,0,1,1.24,3.07,20.11,20.11,0,0,1,.59,2.39c.09.58.18,1.34.25,2.28a3.18,3.18,0,0,1-.4,1.94,2.7,2.7,0,0,1-1.24,1.18,3.53,3.53,0,0,1-1.59.3,2,2,0,0,1-1.46-.7,3.71,3.71,0,0,1-.84-1.83,24.42,24.42,0,0,0-1.67-5.68c-.3-.61-.66-1.24-1.06-1.9a4.76,4.76,0,0,0-1.52-1.54,1.53,1.53,0,0,0-1.64-.14,1.87,1.87,0,0,0-1,1.44,6.83,6.83,0,0,0,.39,2.64l1.08,3.86a34.22,34.22,0,0,1,.88,4.09,12.46,12.46,0,0,1,0,3.34A6.41,6.41,0,0,1,142,339a8.47,8.47,0,0,1-2.62,2.28,8.37,8.37,0,0,1-5.46,1.24,9.41,9.41,0,0,1-5-2.33,17.13,17.13,0,0,1-3.94-5.25A19.7,19.7,0,0,1,122.56,323.89Zm32.26-7.9a1.87,1.87,0,0,1,1.6-.21,1.93,1.93,0,0,1,1.11.92,2,2,0,0,1,.19,1.45,1.84,1.84,0,0,1-1,1.25l-6.22,3.53-1.94-3.4Zm-29,17.15,2,3.44-6.17,3.51a1.83,1.83,0,0,1-2,0,2.06,2.06,0,0,1-1-1.7,1.82,1.82,0,0,1,1.06-1.73Z" transform="translate(-52.61 -79.95)" style="fill:#fff;stroke:#263238;stroke-miterlimit:10"></path></g><g id="freepik--Card--inject-74"><rect x="144.61" y="174.08" width="228.25" height="139.52" rx="8.13" transform="translate(-67.8 -62.75) rotate(-3.7)" style="fill:#C21978;stroke:#263238;stroke-linecap:round;stroke-linejoin:round"></rect><path d="M361.14,167.32l-213.8,13.81a7,7,0,0,0-6.54,7.45l2.33,36,227.78-14.72-2.33-36A7,7,0,0,0,361.14,167.32Z" transform="translate(-52.61 -79.95)" style="fill:#263238;stroke:#263238;stroke-linecap:round;stroke-linejoin:round"></path><path d="M228.58,285.53c-39.1,20.12-64.62,24.6-79.94,24.41l.25,3.89a7,7,0,0,0,7.45,6.54l213.79-13.82a7,7,0,0,0,6.54-7.45l-4.51-69.83C310.85,230.42,293.48,252.13,228.58,285.53Z" transform="translate(-52.61 -79.95)" style="fill:#263238;stroke:#263238;stroke-linecap:round;stroke-linejoin:round"></path><rect x="163.85" y="213.39" width="24.42" height="23.61" rx="3.07" transform="translate(-66.77 -68.12) rotate(-3.7)" style="fill:#fff;stroke:#263238;stroke-linecap:round;stroke-linejoin:round"></rect><rect x="172.27" y="221.53" width="7.57" height="7.32" rx="1.5" transform="translate(-66.77 -68.12) rotate(-3.7)" style="fill:#fff;stroke:#263238;stroke-linecap:round;stroke-linejoin:round"></rect><path d="M163.28,216.84l7.14-.46a2.52,2.52,0,0,1,2.68,2.36l.2,3" transform="translate(-52.61 -79.95)" style="fill:none;stroke:#263238;stroke-linecap:round;stroke-linejoin:round"></path><path d="M187.65,215.27l-7.05.45a2.53,2.53,0,0,0-2.36,2.68l.2,3" transform="translate(-52.61 -79.95)" style="fill:none;stroke:#263238;stroke-linecap:round;stroke-linejoin:round"></path><path d="M164.48,235.32l7.14-.46a2.52,2.52,0,0,0,2.35-2.68l-.19-3" transform="translate(-52.61 -79.95)" style="fill:none;stroke:#263238;stroke-linecap:round;stroke-linejoin:round"></path><path d="M188.85,233.75l-7,.45a2.52,2.52,0,0,1-2.69-2.35l-.19-3" transform="translate(-52.61 -79.95)" style="fill:none;stroke:#263238;stroke-linecap:round;stroke-linejoin:round"></path><line x1="111.34" y1="146.6" x2="119.7" y2="146.06" style="fill:none;stroke:#263238;stroke-linecap:round;stroke-linejoin:round"></line><line x1="127.05" y1="145.59" x2="135.42" y2="145.05" style="fill:none;stroke:#263238;stroke-linecap:round;stroke-linejoin:round"></line><path d="M268.73,200.52a3.57,3.57,0,0,1-1.5-1.46,5.44,5.44,0,0,1-.65-2.36,5.58,5.58,0,0,1,.34-2.41,3.57,3.57,0,0,1,1.3-1.65,4.26,4.26,0,0,1,2.11-.68,4.63,4.63,0,0,1,1.59.17,3.86,3.86,0,0,1,1.34.68.58.58,0,0,1,.22.42.42.42,0,0,1-.08.31.27.27,0,0,1-.22.15.67.67,0,0,1-.37-.11,4.44,4.44,0,0,0-1.2-.62,3.26,3.26,0,0,0-1.2-.13,2.72,2.72,0,0,0-2.15,1.09,4.06,4.06,0,0,0-.61,2.71,4.12,4.12,0,0,0,1,2.63,2.74,2.74,0,0,0,2.28.79,3.47,3.47,0,0,0,1.17-.27,4.66,4.66,0,0,0,1.11-.77.63.63,0,0,1,.35-.16.27.27,0,0,1,.24.11.39.39,0,0,1,.12.3.56.56,0,0,1-.17.45,3.84,3.84,0,0,1-1.23.84,4.51,4.51,0,0,1-1.56.37A4,4,0,0,1,268.73,200.52Z" transform="translate(-52.61 -79.95)" style="fill:#fff"></path><path d="M282.35,199.73a.38.38,0,0,1-.12.32.55.55,0,0,1-.32.14.51.51,0,0,1-.47-.22l-1.83-2.53a2.16,2.16,0,0,0-.72-.66,2.09,2.09,0,0,0-1-.13l-1.56.1.21,3.25a.54.54,0,0,1-.11.38.54.54,0,0,1-.74.05.55.55,0,0,1-.16-.37l-.5-7.8a.48.48,0,0,1,.12-.37.51.51,0,0,1,.37-.16l3.08-.2a3.32,3.32,0,0,1,2.22.49,2.3,2.3,0,0,1,.87,1.82,2.33,2.33,0,0,1-.49,1.71,2.76,2.76,0,0,1-1.67.88,1.67,1.67,0,0,1,.58.29,3.16,3.16,0,0,1,.53.59l1.56,2.15A.49.49,0,0,1,282.35,199.73Zm-3.53-4a2.41,2.41,0,0,0,1.5-.52,1.59,1.59,0,0,0,.42-1.32,1.54,1.54,0,0,0-.58-1.22,2.35,2.35,0,0,0-1.55-.31l-2.51.16.21,3.37Z" transform="translate(-52.61 -79.95)" style="fill:#fff"></path><path d="M284.26,199.82a.47.47,0,0,1-.17-.35l-.5-7.76a.46.46,0,0,1,.12-.37.51.51,0,0,1,.37-.16l4.65-.3a.49.49,0,0,1,.35.09.38.38,0,0,1,.15.3.43.43,0,0,1-.11.32.5.5,0,0,1-.34.13l-4.16.27.2,3,3.91-.25a.47.47,0,0,1,.35.09.4.4,0,0,1,.15.3.41.41,0,0,1-.1.32.53.53,0,0,1-.35.14l-3.91.25.21,3.18,4.16-.27a.52.52,0,0,1,.35.08.4.4,0,0,1,.15.31.38.38,0,0,1-.11.32.49.49,0,0,1-.34.14l-4.64.3A.51.51,0,0,1,284.26,199.82Z" transform="translate(-52.61 -79.95)" style="fill:#fff"></path><path d="M291.49,199.36a.51.51,0,0,1-.17-.36l-.5-7.76a.48.48,0,0,1,.12-.37.51.51,0,0,1,.37-.16l2.42-.16a4,4,0,0,1,4.69,4.09,4.38,4.38,0,0,1-.95,3.32,4.43,4.43,0,0,1-3.17,1.35l-2.42.16A.55.55,0,0,1,291.49,199.36Zm5.87-4.65q-.23-3.51-3.63-3.28l-1.87.12.46,7,1.86-.12Q297.58,198.23,297.36,194.71Z" transform="translate(-52.61 -79.95)" style="fill:#fff"></path><path d="M300.67,198.82a.51.51,0,0,1-.16-.37l-.51-7.84a.55.55,0,0,1,.11-.39.52.52,0,0,1,.37-.17.5.5,0,0,1,.38.12.53.53,0,0,1,.16.37l.51,7.84a.51.51,0,0,1-.12.39.48.48,0,0,1-.36.17A.49.49,0,0,1,300.67,198.82Z" transform="translate(-52.61 -79.95)" style="fill:#fff"></path><path d="M306,198.48a.54.54,0,0,1-.17-.37l-.48-7.43-2.67.17a.51.51,0,0,1-.36-.09.43.43,0,0,1-.14-.31.41.41,0,0,1,.1-.34.5.5,0,0,1,.34-.13l6.38-.41a.49.49,0,0,1,.35.09.46.46,0,0,1,0,.64.49.49,0,0,1-.34.14l-2.67.17.48,7.43a.55.55,0,0,1-.11.39.59.59,0,0,1-.75,0Z" transform="translate(-52.61 -79.95)" style="fill:#fff"></path><path d="M315.89,197.47a3.57,3.57,0,0,1-1.5-1.46,6.12,6.12,0,0,1-.31-4.77,3.61,3.61,0,0,1,1.3-1.64,4.1,4.1,0,0,1,2.12-.68,4.6,4.6,0,0,1,1.58.16,4,4,0,0,1,1.34.68.6.6,0,0,1,.23.43.48.48,0,0,1-.08.31.28.28,0,0,1-.23.14.69.69,0,0,1-.37-.11,4.4,4.4,0,0,0-1.19-.62,3.31,3.31,0,0,0-1.2-.12,2.72,2.72,0,0,0-2.16,1.08,4,4,0,0,0-.6,2.71,4.12,4.12,0,0,0,.94,2.63A2.71,2.71,0,0,0,318,197a3.24,3.24,0,0,0,1.17-.27,4.66,4.66,0,0,0,1.11-.77.66.66,0,0,1,.35-.16.3.3,0,0,1,.25.11.51.51,0,0,1,.12.3.59.59,0,0,1-.17.45,4,4,0,0,1-1.24.85,4.69,4.69,0,0,1-1.56.37A4.18,4.18,0,0,1,315.89,197.47Z" transform="translate(-52.61 -79.95)" style="fill:#fff"></path><path d="M330.12,196.62a.38.38,0,0,1-.12.32.51.51,0,0,1-.33.15.45.45,0,0,1-.46-.27l-1-2-4.69.31-.76,2.07a.44.44,0,0,1-.42.32.45.45,0,0,1-.35-.11.39.39,0,0,1-.17-.3.44.44,0,0,1,0-.2l3.05-8.14a.51.51,0,0,1,.2-.27.65.65,0,0,1,.32-.11.63.63,0,0,1,.34.07.56.56,0,0,1,.24.24l4.07,7.67A.56.56,0,0,1,330.12,196.62Zm-6.29-2.32,3.94-.26-2.26-4.33Z" transform="translate(-52.61 -79.95)" style="fill:#fff"></path><path d="M338.33,196.12a.37.37,0,0,1-.12.31.55.55,0,0,1-.32.14.5.5,0,0,1-.46-.22l-1.84-2.53a2,2,0,0,0-.71-.65,2,2,0,0,0-1-.14l-1.57.1.21,3.25a.48.48,0,0,1-.11.38.44.44,0,0,1-.35.17.47.47,0,0,1-.38-.12.51.51,0,0,1-.16-.37l-.51-7.8a.48.48,0,0,1,.12-.37.51.51,0,0,1,.37-.16l3.08-.2a3.29,3.29,0,0,1,2.22.49,2.65,2.65,0,0,1,.38,3.53,2.74,2.74,0,0,1-1.67.89,1.42,1.42,0,0,1,.58.28,2.87,2.87,0,0,1,.54.59l1.56,2.15A.48.48,0,0,1,338.33,196.12Zm-3.52-4a2.35,2.35,0,0,0,1.49-.52,1.58,1.58,0,0,0,.42-1.32,1.53,1.53,0,0,0-.57-1.22,2.43,2.43,0,0,0-1.56-.31l-2.51.16.22,3.37Z" transform="translate(-52.61 -79.95)" style="fill:#fff"></path><path d="M340.24,196.21a.5.5,0,0,1-.16-.36l-.5-7.76a.48.48,0,0,1,.12-.37.49.49,0,0,1,.37-.16l2.42-.16a4.4,4.4,0,1,1,.56,8.76l-2.42.16A.55.55,0,0,1,340.24,196.21Zm5.87-4.65c-.15-2.34-1.36-3.43-3.63-3.29l-1.86.13.45,7,1.87-.13C345.21,195.15,346.26,193.9,346.11,191.56Z" transform="translate(-52.61 -79.95)" style="fill:#fff"></path><path d="M166,271.05a6.8,6.8,0,0,1-1.15-3.78,6.89,6.89,0,0,1,.65-3.92,3.32,3.32,0,0,1,5.28-.35,8.64,8.64,0,0,1,.5,7.71,3.31,3.31,0,0,1-5.28.34Zm4.38-1a9.22,9.22,0,0,0-.41-6.35,2.08,2.08,0,0,0-3.56.24,9.05,9.05,0,0,0,.41,6.34,1.89,1.89,0,0,0,1.84.9A1.92,1.92,0,0,0,170.39,270.08Z" transform="translate(-52.61 -79.95)" style="fill:#fff;stroke:#263238;stroke-linecap:round;stroke-linejoin:round;stroke-width:0.25px"></path><path d="M176.06,270.41a8.64,8.64,0,0,1-.5-7.71,3.31,3.31,0,0,1,5.28-.35,6.78,6.78,0,0,1,1.15,3.79,6.89,6.89,0,0,1-.65,3.92,3.32,3.32,0,0,1-5.28.35Zm4.37-1a6.6,6.6,0,0,0,.37-3.21,6.78,6.78,0,0,0-.77-3.14,2.1,2.1,0,0,0-3.57.24,6.73,6.73,0,0,0-.37,3.21,6.87,6.87,0,0,0,.78,3.13,2.07,2.07,0,0,0,3.56-.23Z" transform="translate(-52.61 -79.95)" style="fill:#fff;stroke:#263238;stroke-linecap:round;stroke-linejoin:round;stroke-width:0.25px"></path><path d="M186.1,269.76a8.68,8.68,0,0,1-.49-7.71,3.31,3.31,0,0,1,5.28-.35,8.72,8.72,0,0,1,.5,7.71,3.31,3.31,0,0,1-5.29.35Zm4.38-1a9.11,9.11,0,0,0-.4-6.34,2.09,2.09,0,0,0-3.57.23,6.73,6.73,0,0,0-.37,3.21,6.63,6.63,0,0,0,.78,3.13,2.06,2.06,0,0,0,3.56-.23Z" transform="translate(-52.61 -79.95)" style="fill:#fff;stroke:#263238;stroke-linecap:round;stroke-linejoin:round;stroke-width:0.25px"></path><path d="M196.15,269.11a8.72,8.72,0,0,1-.5-7.71,3.33,3.33,0,0,1,5.29-.35,6.89,6.89,0,0,1,1.15,3.79,6.78,6.78,0,0,1-.66,3.92,3.3,3.3,0,0,1-5.28.35Zm4.38-1a9,9,0,0,0-.41-6.34,1.88,1.88,0,0,0-1.85-.89,1.92,1.92,0,0,0-1.71,1.12,6.73,6.73,0,0,0-.37,3.21,6.63,6.63,0,0,0,.78,3.13,2.06,2.06,0,0,0,3.56-.23Z" transform="translate(-52.61 -79.95)" style="fill:#fff;stroke:#263238;stroke-linecap:round;stroke-linejoin:round;stroke-width:0.25px"></path><path d="M216.48,267.79a8.64,8.64,0,0,1-.5-7.71,3.31,3.31,0,0,1,5.28-.34,6.78,6.78,0,0,1,1.15,3.79,6.9,6.9,0,0,1-.65,3.92,3.31,3.31,0,0,1-5.28.34Zm4.37-1a9.15,9.15,0,0,0-.4-6.35,2.09,2.09,0,0,0-3.57.24,6.7,6.7,0,0,0-.37,3.2,6.92,6.92,0,0,0,.78,3.14,2.07,2.07,0,0,0,3.56-.23Z" transform="translate(-52.61 -79.95)" style="fill:#fff;stroke:#263238;stroke-linecap:round;stroke-linejoin:round;stroke-width:0.25px"></path><path d="M226.52,267.14a8.7,8.7,0,0,1-.5-7.7,3.31,3.31,0,0,1,5.29-.35,6.78,6.78,0,0,1,1.15,3.79,6.89,6.89,0,0,1-.65,3.92,3.32,3.32,0,0,1-5.29.34Zm4.38-1a9.15,9.15,0,0,0-.4-6.35,2.09,2.09,0,0,0-3.57.24,9.05,9.05,0,0,0,.41,6.34,2.07,2.07,0,0,0,3.56-.23Z" transform="translate(-52.61 -79.95)" style="fill:#fff;stroke:#263238;stroke-linecap:round;stroke-linejoin:round;stroke-width:0.25px"></path><path d="M236.57,266.49a6.8,6.8,0,0,1-1.15-3.78,6.89,6.89,0,0,1,.65-3.92,3.3,3.3,0,0,1,5.28-.35,8.64,8.64,0,0,1,.5,7.71,3.31,3.31,0,0,1-5.28.34Zm4.38-1a9.07,9.07,0,0,0-.41-6.35,2.08,2.08,0,0,0-3.56.24,9.05,9.05,0,0,0,.41,6.34,1.89,1.89,0,0,0,1.84.9A1.91,1.91,0,0,0,241,265.52Z" transform="translate(-52.61 -79.95)" style="fill:#fff;stroke:#263238;stroke-linecap:round;stroke-linejoin:round;stroke-width:0.25px"></path><path d="M246.62,265.84a6.72,6.72,0,0,1-1.15-3.78,6.8,6.8,0,0,1,.65-3.92,3.32,3.32,0,0,1,5.28-.35,6.7,6.7,0,0,1,1.15,3.79,6.8,6.8,0,0,1-.65,3.92,3.31,3.31,0,0,1-5.28.34Zm4.37-1a6.6,6.6,0,0,0,.37-3.21,6.78,6.78,0,0,0-.77-3.14,2.09,2.09,0,0,0-3.57.24,6.72,6.72,0,0,0-.36,3.2,6.64,6.64,0,0,0,.78,3.14,2.06,2.06,0,0,0,3.55-.23Z" transform="translate(-52.61 -79.95)" style="fill:#fff;stroke:#263238;stroke-linecap:round;stroke-linejoin:round;stroke-width:0.25px"></path><path d="M266.94,264.53a6.81,6.81,0,0,1-1.15-3.79,6.9,6.9,0,0,1,.65-3.92,3.33,3.33,0,0,1,5.29-.35,6.93,6.93,0,0,1,1.15,3.8,6.81,6.81,0,0,1-.66,3.92,3,3,0,0,1-2.55,1.49A3,3,0,0,1,266.94,264.53Zm4.38-1a6.77,6.77,0,0,0,.37-3.21,6.87,6.87,0,0,0-.77-3.14,1.94,1.94,0,0,0-1.86-.89,1.91,1.91,0,0,0-1.71,1.13,9.05,9.05,0,0,0,.41,6.34,2.07,2.07,0,0,0,3.56-.23Z" transform="translate(-52.61 -79.95)" style="fill:#fff;stroke:#263238;stroke-linecap:round;stroke-linejoin:round;stroke-width:0.25px"></path><path d="M277,263.88a6.81,6.81,0,0,1-1.15-3.79,6.9,6.9,0,0,1,.65-3.92,3.32,3.32,0,0,1,5.28-.35,8.66,8.66,0,0,1,.5,7.72,3.31,3.31,0,0,1-5.28.34Zm4.38-1a6.66,6.66,0,0,0,.36-3.21,6.74,6.74,0,0,0-.77-3.14,2.08,2.08,0,0,0-3.56.24A6.58,6.58,0,0,0,277,260a6.67,6.67,0,0,0,.78,3.14,2.07,2.07,0,0,0,3.56-.23Z" transform="translate(-52.61 -79.95)" style="fill:#fff;stroke:#263238;stroke-linecap:round;stroke-linejoin:round;stroke-width:0.25px"></path><path d="M287,263.23a8.64,8.64,0,0,1-.5-7.71,3,3,0,0,1,2.55-1.49,3,3,0,0,1,2.73,1.14,8.74,8.74,0,0,1,.5,7.72,3.31,3.31,0,0,1-5.28.34Zm4.37-1a6.64,6.64,0,0,0,.37-3.21,6.74,6.74,0,0,0-.77-3.14,2.09,2.09,0,0,0-3.57.24,6.7,6.7,0,0,0-.37,3.2,6.92,6.92,0,0,0,.78,3.14,2.07,2.07,0,0,0,3.56-.23Z" transform="translate(-52.61 -79.95)" style="fill:#fff;stroke:#263238;stroke-linecap:round;stroke-linejoin:round;stroke-width:0.25px"></path><path d="M297.08,262.58a8.68,8.68,0,0,1-.49-7.71,3.31,3.31,0,0,1,5.28-.34,6.78,6.78,0,0,1,1.15,3.79,6.9,6.9,0,0,1-.65,3.92,3.32,3.32,0,0,1-5.29.34Zm4.38-1a9.15,9.15,0,0,0-.4-6.35,2.09,2.09,0,0,0-3.57.24,9.05,9.05,0,0,0,.41,6.34,2.07,2.07,0,0,0,3.56-.23Z" transform="translate(-52.61 -79.95)" style="fill:#fff;stroke:#263238;stroke-linecap:round;stroke-linejoin:round;stroke-width:0.25px"></path><path d="M317.41,261.27a6.73,6.73,0,0,1-1.15-3.79,6.9,6.9,0,0,1,.65-3.92,3,3,0,0,1,2.56-1.49,3,3,0,0,1,2.72,1.14,8.66,8.66,0,0,1,.5,7.72,3.31,3.31,0,0,1-5.28.34Zm4.38-1a9.19,9.19,0,0,0-.41-6.34,2.08,2.08,0,0,0-3.56.24,6.56,6.56,0,0,0-.37,3.2,6.63,6.63,0,0,0,.78,3.13,1.9,1.9,0,0,0,1.84.91A1.92,1.92,0,0,0,321.79,260.29Z" transform="translate(-52.61 -79.95)" style="fill:#fff;stroke:#263238;stroke-linecap:round;stroke-linejoin:round;stroke-width:0.25px"></path><path d="M327.46,260.62a8.64,8.64,0,0,1-.5-7.71,3,3,0,0,1,2.55-1.49,3,3,0,0,1,2.73,1.14,8.74,8.74,0,0,1,.5,7.72,3.31,3.31,0,0,1-5.28.34Zm4.37-1a9.12,9.12,0,0,0-.4-6.34,2.09,2.09,0,0,0-3.57.24,6.68,6.68,0,0,0-.37,3.2,7,7,0,0,0,.78,3.14,1.92,1.92,0,0,0,1.85.9A1.9,1.9,0,0,0,331.83,259.64Z" transform="translate(-52.61 -79.95)" style="fill:#fff;stroke:#263238;stroke-linecap:round;stroke-linejoin:round;stroke-width:0.25px"></path><path d="M337.5,260a8.68,8.68,0,0,1-.49-7.71,3,3,0,0,1,2.55-1.49,3,3,0,0,1,2.73,1.14,8.74,8.74,0,0,1,.5,7.72,3.32,3.32,0,0,1-5.29.34Zm4.38-1a9.15,9.15,0,0,0-.4-6.35,2.09,2.09,0,0,0-3.57.24,9.05,9.05,0,0,0,.41,6.34,2.07,2.07,0,0,0,3.56-.23Z" transform="translate(-52.61 -79.95)" style="fill:#fff;stroke:#263238;stroke-linecap:round;stroke-linejoin:round;stroke-width:0.25px"></path><path d="M347.55,259.32a6.81,6.81,0,0,1-1.15-3.79,6.9,6.9,0,0,1,.65-3.92,3.32,3.32,0,0,1,5.28-.35,8.66,8.66,0,0,1,.5,7.72,3,3,0,0,1-2.55,1.49A3,3,0,0,1,347.55,259.32Zm4.38-1a9.07,9.07,0,0,0-.41-6.35,2.08,2.08,0,0,0-3.56.24,9.05,9.05,0,0,0,.41,6.34,2.07,2.07,0,0,0,3.56-.23Z" transform="translate(-52.61 -79.95)" style="fill:#fff;stroke:#263238;stroke-linecap:round;stroke-linejoin:round;stroke-width:0.25px"></path><path d="M344.59,296.52a11.42,11.42,0,1,0-1.48-22.79l-15.48,1a11.42,11.42,0,0,0,1.47,22.8Z" transform="translate(-52.61 -79.95)" style="fill:#fff"></path></g><g id="freepik--Coins--inject-74"><circle cx="420.78" cy="281.68" r="26.2" transform="translate(-112.25 41.73) rotate(-15.38)" style="fill:#fff;stroke:#263238;stroke-linecap:round;stroke-linejoin:round"></circle><circle cx="420.78" cy="278.18" r="26.2" transform="translate(64.42 600.95) rotate(-86.44)" style="fill:#fff;stroke:#263238;stroke-linecap:round;stroke-linejoin:round"></circle><path d="M442.15,271.91a22.28,22.28,0,0,0-5.64-9.5" transform="translate(-52.61 -79.95)" style="fill:#fff;stroke:#263238;stroke-linecap:round;stroke-linejoin:round"></path><path d="M423.25,300.31a21.85,21.85,0,0,0,3.25-.61,22.28,22.28,0,0,0,16.43-23.86" transform="translate(-52.61 -79.95)" style="fill:#fff;stroke:#263238;stroke-linecap:round;stroke-linejoin:round"></path><path d="M433.28,259.75a22.27,22.27,0,1,0-12.41,40.7" transform="translate(-52.61 -79.95)" style="fill:#fff;stroke:#263238;stroke-linecap:round;stroke-linejoin:round"></path><path d="M414,289.59a2.09,2.09,0,0,1-1.05-.86,2.14,2.14,0,0,1-.32-1.21,2.85,2.85,0,0,1,.35-1.22,1.7,1.7,0,0,1,1-.82,2.86,2.86,0,0,1,1.53-.07l.9.21c.49.11.92.21,1.27.27a9.59,9.59,0,0,0,1.49.09,8.94,8.94,0,0,0,1.91-.21,6.78,6.78,0,0,0,1.42-.37,8.44,8.44,0,0,0,1.35-.62,2.38,2.38,0,0,0,.94-.92,1.63,1.63,0,0,0,.13-1.27,1.46,1.46,0,0,0-.93-.89,5,5,0,0,0-2.08-.32h-3.13c-1.18,0-2.13-.05-2.86-.11a14.21,14.21,0,0,1-2.24-.35,5.18,5.18,0,0,1-1.86-.77,5.24,5.24,0,0,1-1.28-1.36,7,7,0,0,1-.92-2.13,5.54,5.54,0,0,1,1.4-5.48,12.15,12.15,0,0,1,6.75-3.32,15.23,15.23,0,0,1,2.53-.32,13.63,13.63,0,0,1,1.89,0c.45.05,1,.13,1.75.26a2.45,2.45,0,0,1,1.37.68,2,2,0,0,1,.63,1.15,2.79,2.79,0,0,1-.08,1.25,1.58,1.58,0,0,1-.81,1,2.84,2.84,0,0,1-1.53.27,18.88,18.88,0,0,0-4.56.13,13.85,13.85,0,0,0-1.62.42,3.63,3.63,0,0,0-1.45.82,1.18,1.18,0,0,0-.43,1.2,1.46,1.46,0,0,0,.88,1,5.31,5.31,0,0,0,2,.23l3.09-.06a29.13,29.13,0,0,1,3.22.15,9.69,9.69,0,0,1,2.49.64,5,5,0,0,1,1.94,1.42,7.22,7.22,0,0,1,1,6.71,7.27,7.27,0,0,1-2.73,3.29,13.25,13.25,0,0,1-4.68,1.9A15.24,15.24,0,0,1,414,289.59Zm.44-25.59a1.4,1.4,0,0,1,.16-1.23,1.46,1.46,0,0,1,.9-.65,1.61,1.61,0,0,1,1.11.14,1.41,1.41,0,0,1,.74,1l1.42,5.33-2.92.78Zm7.08,25,2.94-.78,1.41,5.29a1.41,1.41,0,0,1-.4,1.5,1.58,1.58,0,0,1-1.46.41,1.41,1.41,0,0,1-1.08-1.13Z" transform="translate(-52.61 -79.95)" style="fill:#263238"></path><line x1="346.51" y1="212.9" x2="346.51" y2="216.22" style="fill:none;stroke:#263238;stroke-linecap:round;stroke-linejoin:round"></line><line x1="348.85" y1="216.22" x2="348.85" y2="219.73" style="fill:none;stroke:#263238;stroke-linecap:round;stroke-linejoin:round"></line><line x1="353.53" y1="220.12" x2="353.53" y2="223.44" style="fill:none;stroke:#263238;stroke-linecap:round;stroke-linejoin:round"></line><line x1="360.17" y1="223.44" x2="360.17" y2="226.36" style="fill:none;stroke:#263238;stroke-linecap:round;stroke-linejoin:round"></line><line x1="367.38" y1="224.8" x2="367.38" y2="226.17" style="fill:none;stroke:#263238;stroke-linecap:round;stroke-linejoin:round"></line><line x1="381.62" y1="224.22" x2="381.62" y2="222.07" style="fill:none;stroke:#263238;stroke-linecap:round;stroke-linejoin:round"></line><line x1="384.74" y1="222.07" x2="384.74" y2="218.76" style="fill:none;stroke:#263238;stroke-linecap:round;stroke-linejoin:round"></line><circle cx="383.36" cy="303.2" r="26.2" transform="translate(-99.2 -9.22) rotate(-9.94)" style="fill:#fff;stroke:#263238;stroke-linecap:round;stroke-linejoin:round"></circle><circle cx="383.36" cy="299.69" r="26.2" transform="translate(-98.59 -9.27) rotate(-9.94)" style="fill:#fff;stroke:#263238;stroke-linecap:round;stroke-linejoin:round"></circle><path d="M402.34,311.34a22.27,22.27,0,1,0-30.62,7.33A22.28,22.28,0,0,0,402.34,311.34Z" transform="translate(-52.61 -79.95)" style="fill:#fff;stroke:#263238;stroke-linecap:round;stroke-linejoin:round"></path><path d="M370.43,302.65a2.1,2.1,0,0,1-.1-1.35,2.08,2.08,0,0,1,.66-1.07,2.81,2.81,0,0,1,1.11-.58,1.73,1.73,0,0,1,1.26.12,3,3,0,0,1,1.11,1.07c.06.09.22.35.47.79s.48.81.68,1.11a9,9,0,0,0,1,1.14,9.28,9.28,0,0,0,1.47,1.24,6.82,6.82,0,0,0,1.25.77,8.69,8.69,0,0,0,1.38.56,2.43,2.43,0,0,0,1.31,0,1.64,1.64,0,0,0,1-.77,1.46,1.46,0,0,0,0-1.3,5.12,5.12,0,0,0-1.2-1.73l-2.15-2.27c-.8-.86-1.43-1.58-1.89-2.14a15.4,15.4,0,0,1-1.29-1.87,4.93,4.93,0,0,1-.72-1.88,5.24,5.24,0,0,1,.1-1.87,6.92,6.92,0,0,1,.91-2.12,5.53,5.53,0,0,1,4.93-2.78,12.19,12.19,0,0,1,7.05,2.61,14,14,0,0,1,2,1.61,16.72,16.72,0,0,1,1.29,1.39c.28.36.61.84,1,1.45a2.43,2.43,0,0,1,.46,1.46,2.1,2.1,0,0,1-.4,1.25,2.8,2.8,0,0,1-1,.8,1.52,1.52,0,0,1-1.24.07,2.94,2.94,0,0,1-1.25-.92,18.64,18.64,0,0,0-3.24-3.22,16.63,16.63,0,0,0-1.42-.88,3.58,3.58,0,0,0-1.59-.48,1.17,1.17,0,0,0-1.17.52,1.43,1.43,0,0,0-.14,1.34,5.17,5.17,0,0,0,1.24,1.64l2.17,2.2a28.74,28.74,0,0,1,2.11,2.44,9.38,9.38,0,0,1,1.25,2.24,4.82,4.82,0,0,1,.31,2.39,6.55,6.55,0,0,1-.92,2.5,6.45,6.45,0,0,1-3.23,2.88,7.22,7.22,0,0,1-4.26.28,13.08,13.08,0,0,1-4.6-2.08A15.13,15.13,0,0,1,370.43,302.65Zm18.84-17.32a1.43,1.43,0,0,1,1-.74,1.55,1.55,0,0,1,1.09.21,1.65,1.65,0,0,1,.67.91,1.41,1.41,0,0,1-.19,1.2l-2.88,4.7L386.39,290ZM376,307.7l2.59,1.59L375.76,314a1.4,1.4,0,0,1-1.35.74,1.54,1.54,0,0,1-1.31-.77,1.39,1.39,0,0,1,.07-1.56Z" transform="translate(-52.61 -79.95)" style="fill:#263238"></path><line x1="309.09" y1="234.42" x2="309.09" y2="237.73" style="fill:none;stroke:#263238;stroke-linecap:round;stroke-linejoin:round"></line><line x1="311.43" y1="237.73" x2="311.43" y2="241.24" style="fill:none;stroke:#263238;stroke-linecap:round;stroke-linejoin:round"></line><line x1="316.12" y1="241.63" x2="316.12" y2="244.95" style="fill:none;stroke:#263238;stroke-linecap:round;stroke-linejoin:round"></line><line x1="322.75" y1="244.95" x2="322.75" y2="247.88" style="fill:none;stroke:#263238;stroke-linecap:round;stroke-linejoin:round"></line><line x1="329.97" y1="246.31" x2="329.97" y2="247.68" style="fill:none;stroke:#263238;stroke-linecap:round;stroke-linejoin:round"></line><line x1="344.2" y1="245.73" x2="344.2" y2="243.58" style="fill:none;stroke:#263238;stroke-linecap:round;stroke-linejoin:round"></line><line x1="347.33" y1="243.58" x2="347.33" y2="240.27" style="fill:none;stroke:#263238;stroke-linecap:round;stroke-linejoin:round"></line><circle cx="383.36" cy="297.81" r="26.2" transform="translate(-105.6 5.12) rotate(-11.85)" style="fill:#fff;stroke:#263238;stroke-linecap:round;stroke-linejoin:round"></circle><circle cx="383.36" cy="294.31" r="26.2" transform="translate(-104.88 5.05) rotate(-11.85)" style="fill:#fff;stroke:#263238;stroke-linecap:round;stroke-linejoin:round"></circle><circle cx="383.36" cy="294.31" r="22.27" transform="translate(-110.29 16.7) rotate(-13.37)" style="fill:#fff;stroke:#263238;stroke-linecap:round;stroke-linejoin:round"></circle><path d="M370.43,297.26a2.11,2.11,0,0,1,.56-2.41,2.83,2.83,0,0,1,1.11-.59,1.78,1.78,0,0,1,1.26.13,2.92,2.92,0,0,1,1.11,1.06c.06.1.22.36.47.8s.48.81.68,1.11a9,9,0,0,0,1,1.14,9.22,9.22,0,0,0,1.47,1.23,6.34,6.34,0,0,0,1.25.78,8.61,8.61,0,0,0,1.38.55,2.34,2.34,0,0,0,1.31.05,1.65,1.65,0,0,0,1-.78,1.46,1.46,0,0,0,0-1.3,5.09,5.09,0,0,0-1.2-1.72L379.65,295c-.8-.87-1.43-1.58-1.89-2.15a14.65,14.65,0,0,1-1.29-1.87,4.88,4.88,0,0,1-.72-1.88,5.19,5.19,0,0,1,.1-1.86,7.07,7.07,0,0,1,.91-2.13,5.52,5.52,0,0,1,4.93-2.77,12.12,12.12,0,0,1,7.05,2.61,14,14,0,0,1,2,1.61A15.26,15.26,0,0,1,392,288c.28.36.61.84,1,1.44a2.47,2.47,0,0,1,.46,1.46,2.1,2.1,0,0,1-.4,1.26,2.91,2.91,0,0,1-1,.8,1.52,1.52,0,0,1-1.24.06,2.91,2.91,0,0,1-1.25-.91,18.29,18.29,0,0,0-3.24-3.22A16.63,16.63,0,0,0,385,288a3.58,3.58,0,0,0-1.59-.48,1.21,1.21,0,0,0-1.17.52,1.45,1.45,0,0,0-.14,1.35A5.17,5.17,0,0,0,383.3,291l2.17,2.2a25.94,25.94,0,0,1,2.11,2.44,9.19,9.19,0,0,1,1.25,2.24,4.81,4.81,0,0,1,.31,2.39,6.61,6.61,0,0,1-.92,2.5,6.47,6.47,0,0,1-3.23,2.87,7.22,7.22,0,0,1-4.26.29,13.27,13.27,0,0,1-4.6-2.08A15.1,15.1,0,0,1,370.43,297.26Zm18.84-17.32a1.47,1.47,0,0,1,2.09-.52,1.58,1.58,0,0,1,.67.91,1.39,1.39,0,0,1-.19,1.19l-2.88,4.7-2.57-1.58ZM376,302.32l2.59,1.59-2.86,4.66a1.39,1.39,0,0,1-1.35.75,1.57,1.57,0,0,1-1.31-.78,1.39,1.39,0,0,1,.07-1.56Z" transform="translate(-52.61 -79.95)" style="fill:#263238"></path><line x1="309.09" y1="229.03" x2="309.09" y2="232.35" style="fill:none;stroke:#263238;stroke-linecap:round;stroke-linejoin:round"></line><line x1="311.43" y1="232.35" x2="311.43" y2="235.86" style="fill:none;stroke:#263238;stroke-linecap:round;stroke-linejoin:round"></line><line x1="316.12" y1="236.25" x2="316.12" y2="239.57" style="fill:none;stroke:#263238;stroke-linecap:round;stroke-linejoin:round"></line><line x1="322.75" y1="239.57" x2="322.75" y2="242.49" style="fill:none;stroke:#263238;stroke-linecap:round;stroke-linejoin:round"></line><line x1="329.97" y1="240.93" x2="329.97" y2="242.3" style="fill:none;stroke:#263238;stroke-linecap:round;stroke-linejoin:round"></line><line x1="344.2" y1="240.35" x2="344.2" y2="238.2" style="fill:none;stroke:#263238;stroke-linecap:round;stroke-linejoin:round"></line><line x1="347.33" y1="238.2" x2="347.33" y2="234.88" style="fill:none;stroke:#263238;stroke-linecap:round;stroke-linejoin:round"></line><circle cx="383.36" cy="292.39" r="26.2" transform="translate(-122.12 377.89) rotate(-57.4)" style="fill:#fff;stroke:#263238;stroke-linecap:round;stroke-linejoin:round"></circle><circle cx="383.36" cy="288.89" r="26.2" transform="translate(-119.16 376.28) rotate(-57.4)" style="fill:#fff;stroke:#263238;stroke-linecap:round;stroke-linejoin:round"></circle><circle cx="383.36" cy="288.89" r="22.27" transform="translate(-66.29 478.73) rotate(-71.2)" style="fill:#fff;stroke:#263238;stroke-linecap:round;stroke-linejoin:round"></circle><path d="M370.43,291.84a2.07,2.07,0,0,1-.1-1.34,2.15,2.15,0,0,1,.66-1.08,3,3,0,0,1,1.11-.58,1.68,1.68,0,0,1,1.26.13,2.92,2.92,0,0,1,1.11,1.06c.06.09.22.36.47.79s.48.81.68,1.11a7.81,7.81,0,0,0,1,1.14,9.28,9.28,0,0,0,1.47,1.24,6.34,6.34,0,0,0,1.25.78,9.66,9.66,0,0,0,1.38.55,2.34,2.34,0,0,0,1.31,0,1.6,1.6,0,0,0,1-.77,1.46,1.46,0,0,0,0-1.3,5.09,5.09,0,0,0-1.2-1.72l-2.15-2.27c-.8-.87-1.43-1.59-1.89-2.15a15.4,15.4,0,0,1-1.29-1.87,4.93,4.93,0,0,1-.72-1.88,5.19,5.19,0,0,1,.1-1.86,7,7,0,0,1,.91-2.13,5.5,5.5,0,0,1,4.93-2.77,12.1,12.1,0,0,1,7.05,2.6,14.74,14.74,0,0,1,2,1.61,15.13,15.13,0,0,1,1.29,1.4c.28.36.61.84,1,1.44a2.45,2.45,0,0,1,.46,1.46,2.1,2.1,0,0,1-.4,1.26,2.89,2.89,0,0,1-1,.79,1.52,1.52,0,0,1-1.24.07,2.86,2.86,0,0,1-1.25-.92,18.64,18.64,0,0,0-3.24-3.22,16.63,16.63,0,0,0-1.42-.88,3.58,3.58,0,0,0-1.59-.48,1.19,1.19,0,0,0-1.17.52,1.45,1.45,0,0,0-.14,1.35,5.15,5.15,0,0,0,1.24,1.63l2.17,2.2a28.74,28.74,0,0,1,2.11,2.44,9.25,9.25,0,0,1,1.25,2.25,4.77,4.77,0,0,1,.31,2.38,6.59,6.59,0,0,1-.92,2.51,6.47,6.47,0,0,1-3.23,2.87,7.3,7.3,0,0,1-4.26.29,13.27,13.27,0,0,1-4.6-2.08A15.21,15.21,0,0,1,370.43,291.84Zm18.84-17.32a1.41,1.41,0,0,1,1-.73,1.5,1.5,0,0,1,1.09.2,1.65,1.65,0,0,1,.67.91,1.41,1.41,0,0,1-.19,1.2L389,280.8l-2.57-1.58ZM376,296.9l2.59,1.59-2.86,4.66a1.42,1.42,0,0,1-1.35.75,1.57,1.57,0,0,1-1.31-.78,1.39,1.39,0,0,1,.07-1.56Z" transform="translate(-52.61 -79.95)" style="fill:#263238"></path><line x1="309.09" y1="223.61" x2="309.09" y2="226.93" style="fill:none;stroke:#263238;stroke-linecap:round;stroke-linejoin:round"></line><line x1="311.43" y1="226.93" x2="311.43" y2="230.44" style="fill:none;stroke:#263238;stroke-linecap:round;stroke-linejoin:round"></line><line x1="316.12" y1="230.83" x2="316.12" y2="234.14" style="fill:none;stroke:#263238;stroke-linecap:round;stroke-linejoin:round"></line><line x1="322.75" y1="234.14" x2="322.75" y2="237.07" style="fill:none;stroke:#263238;stroke-linecap:round;stroke-linejoin:round"></line><line x1="329.97" y1="235.51" x2="329.97" y2="236.87" style="fill:none;stroke:#263238;stroke-linecap:round;stroke-linejoin:round"></line><line x1="344.2" y1="234.92" x2="344.2" y2="232.78" style="fill:none;stroke:#263238;stroke-linecap:round;stroke-linejoin:round"></line><line x1="347.33" y1="232.78" x2="347.33" y2="229.46" style="fill:none;stroke:#263238;stroke-linecap:round;stroke-linejoin:round"></line><circle cx="383.36" cy="287.5" r="26.2" transform="translate(-96.49 -9.46) rotate(-9.94)" style="fill:#fff;stroke:#263238;stroke-linecap:round;stroke-linejoin:round"></circle><circle cx="383.36" cy="284" r="26.2" transform="translate(-94.49 -12.27) rotate(-9.57)" style="fill:#fff;stroke:#263238;stroke-linecap:round;stroke-linejoin:round"></circle><circle cx="383.36" cy="284" r="22.27" transform="translate(-61.66 475.42) rotate(-71.2)" style="fill:#fff;stroke:#263238;stroke-linecap:round;stroke-linejoin:round"></circle><path d="M370.43,287a2.11,2.11,0,0,1,.56-2.41,2.83,2.83,0,0,1,1.11-.59,1.73,1.73,0,0,1,1.26.13,2.92,2.92,0,0,1,1.11,1.06c.06.09.22.36.47.8s.48.81.68,1.11a9,9,0,0,0,1,1.14,9.22,9.22,0,0,0,1.47,1.23,6.34,6.34,0,0,0,1.25.78,8.61,8.61,0,0,0,1.38.55,2.44,2.44,0,0,0,1.31.05,1.65,1.65,0,0,0,1-.78,1.46,1.46,0,0,0,0-1.3,5.09,5.09,0,0,0-1.2-1.72l-2.15-2.27c-.8-.87-1.43-1.58-1.89-2.15a14.65,14.65,0,0,1-1.29-1.87,4.88,4.88,0,0,1-.72-1.88,5.19,5.19,0,0,1,.1-1.86,7.07,7.07,0,0,1,.91-2.13,5.52,5.52,0,0,1,4.93-2.77,12.12,12.12,0,0,1,7.05,2.61,14,14,0,0,1,2,1.61,15.26,15.26,0,0,1,1.29,1.39c.28.36.61.84,1,1.44a2.47,2.47,0,0,1,.46,1.46,2.1,2.1,0,0,1-.4,1.26,2.91,2.91,0,0,1-1,.8,1.52,1.52,0,0,1-1.24.06,2.86,2.86,0,0,1-1.25-.92,18.58,18.58,0,0,0-3.24-3.21,16.63,16.63,0,0,0-1.42-.89,3.58,3.58,0,0,0-1.59-.48,1.21,1.21,0,0,0-1.17.52,1.45,1.45,0,0,0-.14,1.35,5.17,5.17,0,0,0,1.24,1.64l2.17,2.2a25.94,25.94,0,0,1,2.11,2.44,9.19,9.19,0,0,1,1.25,2.24,4.81,4.81,0,0,1,.31,2.39,6.61,6.61,0,0,1-.92,2.5,6.47,6.47,0,0,1-3.23,2.87,7.22,7.22,0,0,1-4.26.29,13.27,13.27,0,0,1-4.6-2.08A15.1,15.1,0,0,1,370.43,287Zm18.84-17.32a1.47,1.47,0,0,1,2.09-.52,1.59,1.59,0,0,1,.67.9,1.41,1.41,0,0,1-.19,1.2l-2.88,4.7-2.57-1.58ZM376,292l2.59,1.59-2.86,4.66a1.39,1.39,0,0,1-1.35.75,1.57,1.57,0,0,1-1.31-.78,1.39,1.39,0,0,1,.07-1.56Z" transform="translate(-52.61 -79.95)" style="fill:#263238"></path><line x1="309.09" y1="218.72" x2="309.09" y2="222.04" style="fill:none;stroke:#263238;stroke-linecap:round;stroke-linejoin:round"></line><line x1="311.43" y1="222.04" x2="311.43" y2="225.55" style="fill:none;stroke:#263238;stroke-linecap:round;stroke-linejoin:round"></line><line x1="316.12" y1="225.94" x2="316.12" y2="229.26" style="fill:none;stroke:#263238;stroke-linecap:round;stroke-linejoin:round"></line><line x1="322.75" y1="229.26" x2="322.75" y2="232.18" style="fill:none;stroke:#263238;stroke-linecap:round;stroke-linejoin:round"></line><line x1="329.97" y1="230.62" x2="329.97" y2="231.99" style="fill:none;stroke:#263238;stroke-linecap:round;stroke-linejoin:round"></line><line x1="344.2" y1="230.04" x2="344.2" y2="227.89" style="fill:none;stroke:#263238;stroke-linecap:round;stroke-linejoin:round"></line><line x1="347.33" y1="227.89" x2="347.33" y2="224.57" style="fill:none;stroke:#263238;stroke-linecap:round;stroke-linejoin:round"></line><circle cx="383.36" cy="282.62" r="26.2" transform="translate(-95.64 -9.53) rotate(-9.94)" style="fill:#fff;stroke:#263238;stroke-linecap:round;stroke-linejoin:round"></circle><circle cx="383.36" cy="279.11" r="26.2" transform="translate(-95.04 -9.58) rotate(-9.94)" style="fill:#fff;stroke:#263238;stroke-linecap:round;stroke-linejoin:round"></circle><circle cx="383.36" cy="279.11" r="22.27" transform="translate(-57.03 472.1) rotate(-71.2)" style="fill:#fff;stroke:#263238;stroke-linecap:round;stroke-linejoin:round"></circle><path d="M370.43,282.07a2.11,2.11,0,0,1-.1-1.35,2.08,2.08,0,0,1,.66-1.07,2.81,2.81,0,0,1,1.11-.58,1.73,1.73,0,0,1,1.26.12,3,3,0,0,1,1.11,1.07c.06.09.22.35.47.79s.48.81.68,1.11a9,9,0,0,0,1,1.14,9.28,9.28,0,0,0,1.47,1.24,6.82,6.82,0,0,0,1.25.77,9.75,9.75,0,0,0,1.38.56,2.43,2.43,0,0,0,1.31,0,1.65,1.65,0,0,0,1-.78,1.44,1.44,0,0,0,0-1.29,5.12,5.12,0,0,0-1.2-1.73l-2.15-2.27c-.8-.87-1.43-1.58-1.89-2.15a14,14,0,0,1-1.29-1.87,4.88,4.88,0,0,1-.72-1.88,5.19,5.19,0,0,1,.1-1.86,6.92,6.92,0,0,1,.91-2.12,5.53,5.53,0,0,1,4.93-2.78,12.19,12.19,0,0,1,7.05,2.61,14,14,0,0,1,2,1.61,16.72,16.72,0,0,1,1.29,1.39c.28.36.61.84,1,1.45a2.43,2.43,0,0,1,.46,1.46,2.1,2.1,0,0,1-.4,1.25,2.91,2.91,0,0,1-1,.8,1.52,1.52,0,0,1-1.24.07,2.94,2.94,0,0,1-1.25-.92,18.64,18.64,0,0,0-3.24-3.22,16.63,16.63,0,0,0-1.42-.88,3.45,3.45,0,0,0-1.59-.48,1.17,1.17,0,0,0-1.17.52,1.43,1.43,0,0,0-.14,1.34,5.17,5.17,0,0,0,1.24,1.64l2.17,2.2a27.27,27.27,0,0,1,2.11,2.44,9.38,9.38,0,0,1,1.25,2.24,4.81,4.81,0,0,1,.31,2.39,6.55,6.55,0,0,1-.92,2.5,6.42,6.42,0,0,1-3.23,2.87,7.22,7.22,0,0,1-4.26.29,13.08,13.08,0,0,1-4.6-2.08A15.13,15.13,0,0,1,370.43,282.07Zm18.84-17.32a1.43,1.43,0,0,1,1-.74,1.55,1.55,0,0,1,1.09.21,1.65,1.65,0,0,1,.67.91,1.41,1.41,0,0,1-.19,1.2L389,271l-2.57-1.58ZM376,287.12l2.59,1.59-2.86,4.67a1.4,1.4,0,0,1-1.35.74,1.54,1.54,0,0,1-1.31-.77,1.39,1.39,0,0,1,.07-1.56Z" transform="translate(-52.61 -79.95)" style="fill:#263238"></path><line x1="309.09" y1="213.83" x2="309.09" y2="217.15" style="fill:none;stroke:#263238;stroke-linecap:round;stroke-linejoin:round"></line><line x1="311.43" y1="217.15" x2="311.43" y2="220.66" style="fill:none;stroke:#263238;stroke-linecap:round;stroke-linejoin:round"></line><line x1="316.12" y1="221.05" x2="316.12" y2="224.37" style="fill:none;stroke:#263238;stroke-linecap:round;stroke-linejoin:round"></line><line x1="322.75" y1="224.37" x2="322.75" y2="227.29" style="fill:none;stroke:#263238;stroke-linecap:round;stroke-linejoin:round"></line><line x1="329.97" y1="225.73" x2="329.97" y2="227.1" style="fill:none;stroke:#263238;stroke-linecap:round;stroke-linejoin:round"></line><line x1="344.2" y1="225.15" x2="344.2" y2="223" style="fill:none;stroke:#263238;stroke-linecap:round;stroke-linejoin:round"></line><line x1="347.33" y1="223" x2="347.33" y2="219.69" style="fill:none;stroke:#263238;stroke-linecap:round;stroke-linejoin:round"></line><circle cx="383.36" cy="277.73" r="26.2" transform="translate(-94.8 -9.6) rotate(-9.94)" style="fill:#fff;stroke:#263238;stroke-linecap:round;stroke-linejoin:round"></circle><circle cx="383.36" cy="274.23" r="26.2" transform="translate(-94.19 -9.66) rotate(-9.94)" style="fill:#fff;stroke:#263238;stroke-linecap:round;stroke-linejoin:round"></circle><path d="M382.13,296.46A22.27,22.27,0,0,0,395,255.24l-.53-.31" transform="translate(-52.61 -79.95)" style="fill:#fff;stroke:#263238;stroke-linecap:round;stroke-linejoin:round"></path><path d="M371.72,293.21a22.24,22.24,0,0,0,8.38,3.05" transform="translate(-52.61 -79.95)" style="fill:#fff;stroke:#263238;stroke-linecap:round;stroke-linejoin:round"></path><path d="M392.32,253.84a22.27,22.27,0,0,0-23.53,37.23" transform="translate(-52.61 -79.95)" style="fill:#fff;stroke:#263238;stroke-linecap:round;stroke-linejoin:round"></path><path d="M370.43,277.18a2.07,2.07,0,0,1-.1-1.34,2.11,2.11,0,0,1,.66-1.08,3,3,0,0,1,1.11-.58,1.68,1.68,0,0,1,1.26.13,2.85,2.85,0,0,1,1.11,1.06c.06.09.22.36.47.79s.48.81.68,1.11a7.81,7.81,0,0,0,1,1.14,9.28,9.28,0,0,0,1.47,1.24,6.34,6.34,0,0,0,1.25.78,9.66,9.66,0,0,0,1.38.55,2.34,2.34,0,0,0,1.31,0,1.6,1.6,0,0,0,1-.77,1.46,1.46,0,0,0,0-1.3,5,5,0,0,0-1.2-1.72L379.65,275c-.8-.87-1.43-1.59-1.89-2.15a15.4,15.4,0,0,1-1.29-1.87,4.93,4.93,0,0,1-.72-1.88,5.25,5.25,0,0,1,.1-1.87,6.92,6.92,0,0,1,.91-2.12,5.53,5.53,0,0,1,4.93-2.78,12.19,12.19,0,0,1,7.05,2.61,14,14,0,0,1,2,1.61,15.13,15.13,0,0,1,1.29,1.4c.28.35.61.84,1,1.44a2.45,2.45,0,0,1,.46,1.46,2.13,2.13,0,0,1-.4,1.26,2.89,2.89,0,0,1-1,.79,1.52,1.52,0,0,1-1.24.07,2.86,2.86,0,0,1-1.25-.92,18.64,18.64,0,0,0-3.24-3.22,16.63,16.63,0,0,0-1.42-.88,3.58,3.58,0,0,0-1.59-.48,1.19,1.19,0,0,0-1.17.52,1.45,1.45,0,0,0-.14,1.35,5.15,5.15,0,0,0,1.24,1.63l2.17,2.2a28.74,28.74,0,0,1,2.11,2.44,9.25,9.25,0,0,1,1.25,2.25,4.77,4.77,0,0,1,.31,2.38,6.55,6.55,0,0,1-.92,2.5,6.45,6.45,0,0,1-3.23,2.88,7.3,7.3,0,0,1-4.26.29,13.45,13.45,0,0,1-4.6-2.08A15.21,15.21,0,0,1,370.43,277.18Zm18.84-17.32a1.41,1.41,0,0,1,1-.73,1.5,1.5,0,0,1,1.09.2,1.65,1.65,0,0,1,.67.91,1.41,1.41,0,0,1-.19,1.2l-2.88,4.7-2.57-1.58ZM376,282.24l2.59,1.59-2.86,4.66a1.42,1.42,0,0,1-1.35.75,1.57,1.57,0,0,1-1.31-.78,1.39,1.39,0,0,1,.07-1.56Z" transform="translate(-52.61 -79.95)" style="fill:#263238"></path><line x1="309.09" y1="208.95" x2="309.09" y2="212.26" style="fill:none;stroke:#263238;stroke-linecap:round;stroke-linejoin:round"></line><line x1="311.43" y1="212.26" x2="311.43" y2="215.78" style="fill:none;stroke:#263238;stroke-linecap:round;stroke-linejoin:round"></line><line x1="316.12" y1="216.17" x2="316.12" y2="219.48" style="fill:none;stroke:#263238;stroke-linecap:round;stroke-linejoin:round"></line><line x1="322.75" y1="219.48" x2="322.75" y2="222.41" style="fill:none;stroke:#263238;stroke-linecap:round;stroke-linejoin:round"></line><line x1="329.97" y1="220.85" x2="329.97" y2="222.21" style="fill:none;stroke:#263238;stroke-linecap:round;stroke-linejoin:round"></line><line x1="344.2" y1="220.26" x2="344.2" y2="218.12" style="fill:none;stroke:#263238;stroke-linecap:round;stroke-linejoin:round"></line><line x1="347.33" y1="218.12" x2="347.33" y2="214.8" style="fill:none;stroke:#263238;stroke-linecap:round;stroke-linejoin:round"></line><circle cx="427.92" cy="342.43" r="26.2" transform="translate(-35.3 625.49) rotate(-80.15)" style="fill:#fff;stroke:#263238;stroke-linecap:round;stroke-linejoin:round"></circle><circle cx="427.92" cy="338.92" r="26.2" transform="translate(-153.41 123.19) rotate(-23.98)" style="fill:#fff;stroke:#263238;stroke-linecap:round;stroke-linejoin:round"></circle><circle cx="427.92" cy="338.92" r="22.27" transform="matrix(0.3, -0.95, 0.95, 0.3, -77.36, 564.06)" style="fill:#fff;stroke:#263238;stroke-linecap:round;stroke-linejoin:round"></circle><path d="M421.15,350.33a2.09,2.09,0,0,1-1-.86,2.06,2.06,0,0,1-.32-1.21,2.85,2.85,0,0,1,.35-1.22,1.72,1.72,0,0,1,.95-.82,2.81,2.81,0,0,1,1.54-.06c.11,0,.41.08.9.2s.92.21,1.27.27a9.5,9.5,0,0,0,1.49.09,8.94,8.94,0,0,0,1.91-.21,6.22,6.22,0,0,0,1.42-.37,8.87,8.87,0,0,0,1.35-.62,2.38,2.38,0,0,0,.94-.92,1.63,1.63,0,0,0,.13-1.27,1.46,1.46,0,0,0-.94-.89,4.92,4.92,0,0,0-2.07-.32h-3.13c-1.18,0-2.14-.05-2.86-.11a14.21,14.21,0,0,1-2.24-.35,5.18,5.18,0,0,1-1.86-.77,5.24,5.24,0,0,1-1.28-1.36,7,7,0,0,1-.92-2.12,5.55,5.55,0,0,1,1.4-5.49,12.15,12.15,0,0,1,6.75-3.32,15.23,15.23,0,0,1,2.53-.32,15.43,15.43,0,0,1,1.89,0c.45.05,1,.13,1.75.26a2.51,2.51,0,0,1,1.37.68,2,2,0,0,1,.63,1.15,2.79,2.79,0,0,1-.08,1.25,1.56,1.56,0,0,1-.82.95,2.79,2.79,0,0,1-1.52.27,18.88,18.88,0,0,0-4.56.13,13.85,13.85,0,0,0-1.62.42,3.63,3.63,0,0,0-1.45.82,1.18,1.18,0,0,0-.43,1.2,1.46,1.46,0,0,0,.88,1,5.31,5.31,0,0,0,2,.23l3.09-.06a26.62,26.62,0,0,1,3.22.16,9.29,9.29,0,0,1,2.49.63,5,5,0,0,1,1.94,1.42,7.22,7.22,0,0,1,1,6.71,7.22,7.22,0,0,1-2.73,3.29,13.25,13.25,0,0,1-4.68,1.9A15.24,15.24,0,0,1,421.15,350.33Zm.44-25.59a1.43,1.43,0,0,1,.15-1.23,1.55,1.55,0,0,1,.91-.65,1.61,1.61,0,0,1,1.11.14,1.41,1.41,0,0,1,.74,1l1.42,5.33-2.92.78Zm7.08,25,2.94-.78,1.41,5.29a1.43,1.43,0,0,1-.4,1.5,1.56,1.56,0,0,1-1.46.41,1.39,1.39,0,0,1-1.08-1.13Z" transform="translate(-52.61 -79.95)" style="fill:#263238"></path><line x1="353.65" y1="273.64" x2="353.65" y2="276.96" style="fill:none;stroke:#263238;stroke-linecap:round;stroke-linejoin:round"></line><line x1="355.99" y1="276.96" x2="355.99" y2="280.47" style="fill:none;stroke:#263238;stroke-linecap:round;stroke-linejoin:round"></line><line x1="360.67" y1="280.86" x2="360.67" y2="284.18" style="fill:none;stroke:#263238;stroke-linecap:round;stroke-linejoin:round"></line><line x1="367.31" y1="284.18" x2="367.31" y2="287.1" style="fill:none;stroke:#263238;stroke-linecap:round;stroke-linejoin:round"></line><line x1="374.52" y1="285.54" x2="374.52" y2="286.91" style="fill:none;stroke:#263238;stroke-linecap:round;stroke-linejoin:round"></line><line x1="388.76" y1="284.96" x2="388.76" y2="282.81" style="fill:none;stroke:#263238;stroke-linecap:round;stroke-linejoin:round"></line><line x1="391.88" y1="282.81" x2="391.88" y2="279.5" style="fill:none;stroke:#263238;stroke-linecap:round;stroke-linejoin:round"></line><path d="M450.25,351.19a26.2,26.2,0,1,0-36,8.63A26.2,26.2,0,0,0,450.25,351.19Z" transform="translate(-52.61 -79.95)" style="fill:#fff;stroke:#263238;stroke-linecap:round;stroke-linejoin:round"></path><circle cx="427.92" cy="333.99" r="26.2" transform="translate(4.42 650.4) rotate(-84.87)" style="fill:#fff;stroke:#263238;stroke-linecap:round;stroke-linejoin:round"></circle><path d="M448.16,343.27A22.27,22.27,0,0,0,441,316" transform="translate(-52.61 -79.95)" style="fill:#fff;stroke:#263238;stroke-linecap:round;stroke-linejoin:round"></path><path d="M436.46,313.42A22.27,22.27,0,1,0,446.6,346.1" transform="translate(-52.61 -79.95)" style="fill:#fff;stroke:#263238;stroke-linecap:round;stroke-linejoin:round"></path><path d="M421.15,345.39a2.07,2.07,0,0,1-1-.85,2.09,2.09,0,0,1-.32-1.22,2.81,2.81,0,0,1,.35-1.21,1.68,1.68,0,0,1,.95-.82,2.9,2.9,0,0,1,1.54-.07c.11,0,.41.08.9.2s.92.21,1.27.27a8.25,8.25,0,0,0,1.49.1,9.65,9.65,0,0,0,1.91-.22,6.73,6.73,0,0,0,1.42-.36,10,10,0,0,0,1.35-.62,2.45,2.45,0,0,0,.94-.92,1.63,1.63,0,0,0,.13-1.27,1.42,1.42,0,0,0-.94-.89,4.92,4.92,0,0,0-2.07-.32h-3.13c-1.18,0-2.14-.05-2.86-.11a15.53,15.53,0,0,1-2.24-.36,4.85,4.85,0,0,1-1.86-.77,5.09,5.09,0,0,1-1.28-1.36,6.92,6.92,0,0,1-.92-2.12,5.55,5.55,0,0,1,1.4-5.49,12.15,12.15,0,0,1,6.75-3.31,14.24,14.24,0,0,1,2.53-.32,13.63,13.63,0,0,1,1.89,0c.45,0,1,.13,1.75.26a2.5,2.5,0,0,1,1.37.67,2.07,2.07,0,0,1,.63,1.16,2.75,2.75,0,0,1-.08,1.24,1.58,1.58,0,0,1-.82,1,3,3,0,0,1-1.52.27,18.38,18.38,0,0,0-4.56.12q-.78.17-1.62.42a3.65,3.65,0,0,0-1.45.83,1.18,1.18,0,0,0-.43,1.2,1.44,1.44,0,0,0,.88,1,5.12,5.12,0,0,0,2,.23l3.09-.05a24.92,24.92,0,0,1,3.22.15,9.69,9.69,0,0,1,2.49.64,4.78,4.78,0,0,1,1.94,1.42,7.2,7.2,0,0,1,1,6.71,7.19,7.19,0,0,1-2.73,3.28,13.07,13.07,0,0,1-4.68,1.9A15.07,15.07,0,0,1,421.15,345.39Zm.44-25.59a1.43,1.43,0,0,1,.15-1.23,1.52,1.52,0,0,1,2-.5,1.41,1.41,0,0,1,.74,1l1.42,5.33-2.92.77Zm7.08,25,2.94-.78,1.41,5.28a1.42,1.42,0,0,1-.4,1.5,1.56,1.56,0,0,1-1.46.41,1.36,1.36,0,0,1-1.08-1.12Z" transform="translate(-52.61 -79.95)" style="fill:#263238"></path><line x1="353.65" y1="268.71" x2="353.65" y2="272.02" style="fill:none;stroke:#263238;stroke-linecap:round;stroke-linejoin:round"></line><line x1="355.99" y1="272.02" x2="355.99" y2="275.54" style="fill:none;stroke:#263238;stroke-linecap:round;stroke-linejoin:round"></line><line x1="360.67" y1="275.93" x2="360.67" y2="279.24" style="fill:none;stroke:#263238;stroke-linecap:round;stroke-linejoin:round"></line><line x1="367.31" y1="279.24" x2="367.31" y2="282.17" style="fill:none;stroke:#263238;stroke-linecap:round;stroke-linejoin:round"></line><line x1="374.52" y1="280.61" x2="374.52" y2="281.97" style="fill:none;stroke:#263238;stroke-linecap:round;stroke-linejoin:round"></line><line x1="388.76" y1="280.02" x2="388.76" y2="277.88" style="fill:none;stroke:#263238;stroke-linecap:round;stroke-linejoin:round"></line><line x1="391.88" y1="277.88" x2="391.88" y2="274.56" style="fill:none;stroke:#263238;stroke-linecap:round;stroke-linejoin:round"></line><circle cx="385.61" cy="356.54" r="26.2" transform="translate(-186.61 200.25) rotate(-34.4)" style="fill:#fff;stroke:#263238;stroke-linecap:round;stroke-linejoin:round"></circle><circle cx="385.61" cy="353.04" r="26.2" transform="translate(-125.06 21.06) rotate(-13.65)" style="fill:#fff;stroke:#263238;stroke-linecap:round;stroke-linejoin:round"></circle><path d="M395.84,372.82a22.26,22.26,0,0,0,1.41-38.76,21.16,21.16,0,0,0-2.14-1.16" transform="translate(-52.61 -79.95)" style="fill:#fff;stroke:#263238;stroke-linecap:round;stroke-linejoin:round"></path><path d="M385.38,375.31a22.45,22.45,0,0,0,7-1" transform="translate(-52.61 -79.95)" style="fill:#fff;stroke:#263238;stroke-linecap:round;stroke-linejoin:round"></path><path d="M374,372a22.18,22.18,0,0,0,8.21,3" transform="translate(-52.61 -79.95)" style="fill:#fff;stroke:#263238;stroke-linecap:round;stroke-linejoin:round"></path><path d="M391.86,331.66a22.28,22.28,0,0,0-23.38,35.62" transform="translate(-52.61 -79.95)" style="fill:#fff;stroke:#263238;stroke-linecap:round;stroke-linejoin:round"></path><path d="M372.67,356a2.18,2.18,0,0,1-.1-1.35,2.08,2.08,0,0,1,.66-1.07,2.94,2.94,0,0,1,1.12-.59,1.76,1.76,0,0,1,1.25.13,2.75,2.75,0,0,1,1.11,1.07c.06.09.22.35.48.79s.48.81.67,1.11a9,9,0,0,0,1,1.14,8.92,8.92,0,0,0,1.48,1.24,6.72,6.72,0,0,0,1.24.77,8.61,8.61,0,0,0,1.38.55,2.35,2.35,0,0,0,1.31,0,1.65,1.65,0,0,0,1-.78,1.44,1.44,0,0,0,0-1.29A4.89,4.89,0,0,0,384,356l-2.15-2.27c-.8-.87-1.43-1.58-1.89-2.15a14,14,0,0,1-1.29-1.87,5.22,5.22,0,0,1-.72-1.88,5.43,5.43,0,0,1,.1-1.86,7.07,7.07,0,0,1,.91-2.13,5.54,5.54,0,0,1,4.94-2.77,12.24,12.24,0,0,1,7.05,2.61,14.49,14.49,0,0,1,2,1.61,12.81,12.81,0,0,1,1.29,1.39c.28.36.62.84,1,1.45a2.48,2.48,0,0,1,.45,1.45,2,2,0,0,1-.4,1.26,2.78,2.78,0,0,1-1,.8,1.51,1.51,0,0,1-1.25.06,2.83,2.83,0,0,1-1.25-.91,18.93,18.93,0,0,0-3.23-3.22c-.44-.3-.91-.6-1.43-.89a3.44,3.44,0,0,0-1.59-.47,1.16,1.16,0,0,0-1.16.51,1.43,1.43,0,0,0-.15,1.35,5.33,5.33,0,0,0,1.24,1.64l2.17,2.2a25.72,25.72,0,0,1,2.11,2.44,9.38,9.38,0,0,1,1.25,2.24,4.81,4.81,0,0,1,.31,2.39,7.2,7.2,0,0,1-4.14,5.37,7.22,7.22,0,0,1-4.26.29,13.31,13.31,0,0,1-4.61-2.08A15.2,15.2,0,0,1,372.67,356Zm18.84-17.33a1.46,1.46,0,0,1,1-.73,1.52,1.52,0,0,1,1.09.21,1.56,1.56,0,0,1,.66.91,1.42,1.42,0,0,1-.18,1.19L391.2,345l-2.57-1.58Zm-13.24,22.38,2.6,1.59L378,367.3a1.4,1.4,0,0,1-1.36.75,1.58,1.58,0,0,1-1.31-.78,1.41,1.41,0,0,1,.07-1.56Z" transform="translate(-52.61 -79.95)" style="fill:#263238"></path><line x1="311.34" y1="287.76" x2="311.34" y2="291.08" style="fill:none;stroke:#263238;stroke-linecap:round;stroke-linejoin:round"></line><line x1="313.68" y1="291.08" x2="313.68" y2="294.59" style="fill:none;stroke:#263238;stroke-linecap:round;stroke-linejoin:round"></line><line x1="318.36" y1="294.98" x2="318.36" y2="298.3" style="fill:none;stroke:#263238;stroke-linecap:round;stroke-linejoin:round"></line><line x1="324.99" y1="298.3" x2="324.99" y2="301.22" style="fill:none;stroke:#263238;stroke-linecap:round;stroke-linejoin:round"></line><line x1="332.21" y1="299.66" x2="332.21" y2="301.03" style="fill:none;stroke:#263238;stroke-linecap:round;stroke-linejoin:round"></line><line x1="346.45" y1="299.08" x2="346.45" y2="296.93" style="fill:none;stroke:#263238;stroke-linecap:round;stroke-linejoin:round"></line><line x1="349.57" y1="296.93" x2="349.57" y2="293.62" style="fill:none;stroke:#263238;stroke-linecap:round;stroke-linejoin:round"></line></g></svg>